<?xml version="1.0" standalone="no"?>
<!DOCTYPE svg PUBLIC "-//W3C//DTD SVG 20010904//EN"
 "http://www.w3.org/TR/2001/REC-SVG-20010904/DTD/svg10.dtd">
<svg version="1.0" xmlns="http://www.w3.org/2000/svg"
 width="1080.000000pt" height="1080.000000pt" viewBox="0 0 1080.000000 1080.000000"
 preserveAspectRatio="xMidYMid meet">
<metadata>
Created by potrace 1.16, written by Peter Selinger 2001-2019
</metadata>
<g transform="translate(0.000000,1080.000000) scale(0.100000,-0.100000)"
fill="#000000" stroke="none">
<path d="M7305 5210 c-11 -4 -83 -72 -160 -149 l-140 -141 -3 -281 c-3 -268
-2 -282 17 -315 l21 -35 -21 -28 c-19 -26 -20 -39 -17 -225 l3 -197 125 -123
125 -124 -95 -6 c-52 -3 -104 -5 -115 -4 -11 0 -143 1 -292 2 l-273 1 -32 -32
c-27 -27 -33 -41 -33 -78 0 -25 -2 -45 -5 -45 -2 0 -40 35 -83 78 l-77 77
-376 3 c-332 2 -379 1 -401 -13 -22 -15 -27 -15 -58 -1 -28 14 -92 16 -459 16
-340 0 -433 -3 -460 -14 -46 -19 -66 -67 -66 -157 l0 -74 -120 120 -120 120
-252 3 c-165 2 -260 -1 -278 -8 -14 -6 -89 -74 -166 -151 l-139 -139 -3 -281
c-3 -268 -2 -282 17 -315 l21 -35 -21 -28 c-19 -26 -20 -39 -17 -224 l3 -197
148 -147 147 -148 247 -3 c136 -2 259 0 273 3 13 4 78 59 142 123 l118 116 0
-78 c0 -92 21 -137 72 -155 20 -7 176 -11 457 -11 351 0 431 3 454 15 24 12
32 12 62 -1 30 -12 112 -14 520 -12 l485 3 32 33 33 32 5 352 5 351 63 -344
c66 -358 77 -395 127 -417 18 -8 114 -12 308 -12 262 0 284 1 314 20 18 10 38
32 46 47 8 15 40 174 73 352 l59 324 5 -334 c6 -370 7 -375 72 -398 19 -7 130
-11 286 -11 l254 0 39 39 39 39 0 83 0 84 120 -120 120 -120 253 -3 c139 -2
263 1 275 5 12 5 70 57 130 116 61 59 112 107 116 107 3 0 6 -30 6 -66 0 -80
19 -125 63 -148 29 -16 75 -17 475 -14 l444 3 34 38 34 37 -2 765 -3 765 -32
32 c-29 29 -40 33 -103 36 -64 4 -69 6 -60 22 6 11 10 154 10 350 l0 331 91
227 c251 620 233 572 218 616 -9 25 -27 49 -48 63 -35 24 -36 24 -310 19 -152
-2 -285 -4 -296 -4 -11 0 -379 2 -819 4 l-798 4 -39 -39 -39 -39 0 -83 0 -84
-112 112 c-62 61 -123 116 -135 122 -26 13 -497 14 -528 1z m495 -125 c7 -8 8
-20 4 -26 -5 -8 -3 -9 5 -4 15 9 61 -32 61 -53 0 -9 3 -13 6 -10 3 4 37 -24
75 -62 l69 -68 0 -151 0 -150 -96 -3 -96 -3 96 -96 96 -96 0 -231 0 -231 -118
-120 -118 -120 -212 0 -211 -1 -120 118 -119 117 -1 153 -2 152 91 -2 c49 0
92 1 95 3 2 3 -38 47 -90 99 l-95 95 0 232 0 232 122 121 123 121 212 -1 c167
-1 214 -4 223 -15z m850 -8 c-4 -40 0 -42 19 -10 l20 32 220 1 c122 0 221 -2
221 -4 0 -6 -76 -219 -120 -336 -15 -41 -33 -93 -40 -115 -7 -22 -18 -53 -25
-70 -12 -28 -20 -51 -24 -67 -1 -4 -13 -38 -26 -75 -13 -37 -19 -70 -14 -73 4
-3 10 -15 12 -25 2 -11 10 -33 17 -50 28 -69 59 -168 54 -176 -3 -5 -1 -9 4
-9 6 0 24 -42 41 -93 17 -51 46 -135 65 -186 19 -52 33 -98 31 -102 -3 -4 -1
-9 4 -11 4 -1 12 -13 16 -26 l7 -23 -231 2 c-127 1 -229 4 -227 8 2 3 -2 17
-10 31 -12 23 -13 23 -15 5 -1 -11 -1 -26 0 -33 2 -10 -46 -12 -223 -12 l-226
1 0 713 c0 392 3 716 7 720 4 3 105 6 226 6 218 -1 218 -1 217 -23z m1045 13
c-3 -5 -2 -10 3 -10 4 0 23 -38 41 -85 19 -47 37 -85 40 -85 4 0 23 42 42 94
l34 95 227 0 227 0 -15 -41 c-8 -23 -18 -46 -23 -52 -5 -6 -10 -15 -11 -21 -5
-22 -27 -80 -115 -295 -37 -91 -85 -209 -106 -263 l-39 -98 0 -334 -1 -335
-219 0 -220 0 0 331 0 330 -55 135 c-31 74 -52 140 -49 147 4 7 4 9 -1 5 -6
-6 -205 468 -205 488 0 2 102 4 226 4 147 0 223 -3 219 -10z m-378 -495 l107
-260 5 -356 c5 -281 9 -359 20 -372 12 -16 8 -17 -48 -17 -56 0 -65 -3 -98
-34 -36 -33 -38 -36 -43 -120 l-5 -87 -95 96 -95 95 43 0 c79 0 129 35 145
102 5 20 -15 90 -79 270 -47 134 -103 294 -125 356 l-40 114 86 241 c47 133
88 249 92 257 6 18 -7 47 130 -285z m-1223 -993 c5 -9 -21 -12 -101 -12 l-108
0 95 95 95 96 6 -84 c3 -46 9 -89 13 -95z m246 -157 l-95 -96 -5 83 c-3 46 -9
89 -13 96 -6 9 16 12 100 12 l108 0 -95 -95z m-4184 -1 c19 -15 34 -33 34 -42
0 -8 2 -13 6 -10 3 3 43 -31 89 -76 l83 -81 1 -129 c0 -89 -3 -134 -12 -145
-10 -12 -9 -13 2 -7 9 6 12 5 9 -4 -2 -8 -10 -16 -16 -18 -9 -3 -12 36 -13
150 l-2 153 -106 102 -106 102 -204 1 -203 2 -109 -108 -109 -107 0 -53 c0
-40 4 -54 14 -54 32 0 46 13 46 41 0 24 18 48 94 124 l94 95 173 -1 c96 -1
188 -5 204 -9 17 -4 24 -8 17 -9 -18 -1 -2 -28 42 -71 20 -19 36 -41 36 -49 0
-8 3 -11 7 -8 3 4 17 -3 30 -15 21 -19 23 -30 23 -110 l0 -88 -135 1 -135 1 0
47 0 46 -92 -3 -93 -3 3 -115 3 -114 132 0 132 0 92 -92 93 -93 0 -190 0 -190
-94 -98 -94 -98 -173 1 -173 2 -93 94 -93 94 0 85 0 86 133 -3 132 -3 1 -43 1
-44 92 0 92 0 0 114 1 113 -134 3 -133 3 -92 92 -93 92 0 146 0 147 -32 -10
-33 -10 3 -153 3 -154 112 -113 112 -113 -112 -3 -113 -3 0 -132 c1 -125 2
-133 25 -159 13 -16 28 -28 32 -28 4 -1 22 -19 38 -40 17 -21 36 -39 44 -40 8
0 11 -3 8 -6 -3 -4 10 -22 31 -40 l37 -34 205 0 205 0 88 85 c48 47 87 89 87
93 0 4 9 13 20 20 19 12 20 23 20 242 l0 229 -116 116 -115 115 110 0 c95 0
111 -2 111 -16 0 -14 -11 -15 -75 -12 -41 3 -75 1 -75 -3 0 -4 42 -49 94 -99
l93 -92 2 -233 2 -232 -120 -122 -119 -121 -212 0 -212 0 -119 121 -120 120 3
147 3 147 88 1 c48 1 90 4 93 6 2 3 -39 48 -91 100 l-95 95 0 233 0 233 84 83
c46 45 87 80 90 77 3 -4 6 0 6 8 0 7 12 26 28 41 l27 27 208 0 208 1 35 -26z
m1202 -201 l2 -222 -182 0 -182 0 0 -23 0 -23 181 -3 182 -2 0 -220 0 -220
-174 0 c-195 0 -210 -2 -192 -31 11 -18 25 -19 189 -19 l177 0 1 -225 1 -226
-403 3 -403 3 -3 705 c-1 388 0 710 2 717 4 9 101 12 403 10 l398 -2 3 -222z
m940 116 c61 -62 112 -116 112 -121 0 -5 5 -6 10 -3 7 4 10 -62 10 -191 l0
-197 -45 -45 c-25 -24 -45 -49 -45 -53 0 -5 18 -26 40 -47 l40 -38 3 -314 2
-315 -447 -2 -447 -3 -1 713 c0 392 2 716 6 719 3 4 150 7 327 7 l322 1 113
-111z m682 89 c8 -21 44 -226 57 -326 3 -23 9 -44 13 -47 4 -2 14 37 23 88 9
51 18 103 21 117 2 14 10 62 17 106 l12 82 224 1 c195 1 223 -1 223 -15 0 -8
-4 -13 -9 -10 -5 4 -7 -2 -4 -12 2 -10 -3 -54 -12 -98 -9 -43 -48 -250 -86
-459 -39 -209 -72 -391 -75 -405 -3 -14 -22 -117 -42 -230 l-38 -205 -252 -2
c-139 -1 -252 2 -252 6 0 5 -22 127 -49 272 -48 253 -65 349 -76 414 -3 17
-10 50 -15 75 -9 42 -30 160 -66 360 -8 47 -24 127 -35 177 -30 147 -53 131
196 133 215 1 215 1 225 -22z m1135 -698 l0 -715 -220 0 -220 0 -3 705 c-1
388 0 711 3 718 4 10 51 12 222 10 l218 -3 0 -715z m964 599 l120 -121 0 -194
-1 -193 -159 0 c-88 0 -162 -2 -167 -4 -4 -3 -6 -44 -4 -91 l3 -86 165 0 164
0 -1 -192 -1 -193 -42 -45 c-22 -25 -42 -44 -43 -43 -1 1 -37 -34 -79 -78
l-77 -79 -210 0 -209 0 -119 119 -118 119 -1 481 0 481 122 119 122 120 207 1
207 1 121 -122z m1109 -107 l2 -223 -180 3 c-132 2 -180 0 -180 -9 0 -6 -3
-18 -6 -27 -5 -14 14 -16 179 -16 l186 0 1 -220 1 -220 -179 0 c-98 0 -181 -3
-184 -6 -3 -3 -4 -14 -1 -25 5 -18 16 -19 184 -19 l179 0 -2 -222 -3 -223
-400 0 -400 0 -3 705 c-1 388 0 711 3 718 3 10 89 12 402 10 l398 -3 3 -223z"/>
<path d="M7257 4962 l-107 -107 0 -226 0 -225 90 -89 c49 -50 88 -96 85 -103
-3 -7 0 -10 6 -7 10 7 39 -12 39 -25 0 -4 -46 -8 -102 -9 -56 -1 -105 -4 -110
-7 -4 -3 -8 -62 -8 -132 l0 -127 109 -107 108 -107 203 -1 203 0 54 55 c29 31
53 53 53 50 0 -3 18 15 40 40 22 25 40 43 40 38 1 -4 7 3 15 17 11 20 14 74
15 248 l0 223 -116 114 -116 114 117 3 117 3 -1 130 -2 130 -107 108 -107 107
-205 0 -205 0 -108 -108z m563 -30 c44 -44 80 -84 80 -90 0 -7 6 -11 13 -10 9
2 12 -20 12 -87 l0 -90 -130 0 -130 0 1 43 0 42 -73 1 c-40 1 -82 2 -94 2 -20
1 -20 -4 -21 -113 l0 -115 136 -5 136 -5 90 -90 90 -90 0 -192 0 -193 -92 -95
-92 -95 -173 0 -173 0 -92 91 -91 90 -1 87 -1 87 133 3 c124 3 133 2 132 -15
-1 -10 -2 -31 -1 -48 l1 -30 90 0 c89 0 90 0 91 25 0 14 1 67 2 117 l2 93
-135 0 -135 0 -92 92 -93 93 0 194 0 194 93 93 92 94 173 0 172 0 80 -78z"/>
<path d="M8232 4383 l3 -688 190 0 190 0 5 100 5 100 33 -90 c18 -50 37 -96
41 -103 8 -14 368 -19 382 -5 5 5 -34 127 -86 272 -141 391 -156 439 -137 428
4 -3 7 5 8 16 1 12 24 85 52 162 27 77 70 196 94 265 25 69 54 147 66 173 16
36 18 49 9 53 -7 2 -97 3 -200 2 l-188 -3 -24 -59 c-13 -33 -27 -72 -30 -88
-12 -54 -24 -27 -27 60 l-3 87 -193 3 -192 2 2 -687z m330 376 l3 -251 39 108
c22 60 45 123 52 139 7 17 24 66 38 110 15 44 31 88 36 97 6 10 10 25 10 33 0
13 21 15 130 15 72 0 130 -4 130 -9 0 -7 -34 -103 -57 -161 -6 -17 -102 -288
-141 -398 -20 -59 -23 -77 -13 -95 19 -38 50 -135 44 -141 -4 -3 -2 -6 4 -6 6
0 15 -17 21 -37 12 -42 66 -195 112 -315 17 -43 30 -82 30 -88 0 -7 -42 -10
-125 -9 l-125 1 -15 31 c-8 18 -27 70 -44 117 -92 265 -114 326 -122 334 -5 6
-9 -94 -9 -237 l0 -247 -134 0 -134 0 -1 621 c-1 341 1 625 5 630 3 5 63 9
134 9 l130 0 2 -251z"/>
<path d="M9293 5053 c2 -10 8 -27 14 -38 6 -11 45 -108 88 -215 43 -107 83
-208 90 -225 7 -16 32 -76 54 -131 l42 -101 3 -324 3 -324 183 -3 c101 -1 188
2 193 7 5 5 8 144 8 318 l-1 309 54 135 c205 503 243 599 238 604 -3 3 -90 5
-193 5 l-187 0 -21 -36 c-12 -19 -31 -66 -42 -102 -38 -117 -37 -117 -76 -16
-19 49 -40 104 -48 122 l-15 32 -195 0 c-180 0 -195 -1 -192 -17z m369 -110
c15 -37 46 -117 69 -176 24 -63 45 -105 50 -100 5 5 38 83 73 174 l63 164 127
3 c84 2 126 -1 126 -8 0 -6 -11 -37 -25 -70 -14 -33 -64 -156 -110 -272 -47
-117 -89 -222 -94 -233 -30 -67 -32 -94 -34 -376 l-2 -294 -127 -3 -127 -3 -3
308 -3 308 -53 125 c-30 69 -55 130 -56 135 -2 6 -8 21 -13 35 -6 14 -39 93
-73 175 -34 83 -64 155 -66 161 -4 8 34 12 123 13 l129 2 26 -68z"/>
<path d="M4580 2750 l0 -690 375 0 375 0 0 195 0 195 -180 0 -180 0 0 55 0 55
180 0 180 0 -2 191 -3 191 -178 -2 -178 -1 3 53 3 53 175 5 175 5 3 193 2 192
-375 0 -375 0 0 -690z m685 495 l0 -130 -177 -2 c-98 -1 -178 -4 -178 -7 0 -3
0 -55 0 -116 l0 -110 180 0 181 0 -2 -125 c-1 -119 -2 -125 -23 -131 -12 -3
-92 -4 -178 -2 l-157 3 -3 -118 -3 -117 150 -1 c83 -1 159 -3 170 -4 11 -1 26
-3 33 -3 9 -2 12 -35 12 -132 l0 -130 -315 0 -315 0 0 630 0 631 313 -3 312
-3 0 -130z"/>
<path d="M5560 2752 c0 -379 2 -691 4 -693 2 -2 191 -3 420 -1 l416 2 0 293 0
292 -52 54 -51 54 51 49 52 49 0 182 c0 100 -5 189 -10 197 -5 8 -53 59 -107
113 l-97 97 -313 0 -313 0 0 -688z m687 536 l93 -93 0 -155 0 -156 -61 -59
c-58 -58 -89 -98 -71 -93 5 2 36 -24 70 -58 l61 -60 1 -247 1 -248 -133 3
-133 3 -3 247 -2 247 -90 3 -90 3 0 -252 0 -251 -129 -1 c-125 0 -129 1 -135
22 -3 12 -6 295 -6 630 l0 607 267 0 268 0 92 -92z"/>
<path d="M5889 3040 c-1 -41 -2 -84 -2 -95 -1 -69 -6 -66 94 -63 l91 3 2 114
1 114 -92 1 -93 1 -1 -75z"/>
<path d="M6567 3434 c-3 -3 -2 -16 3 -27 5 -12 16 -65 25 -117 9 -52 27 -149
40 -215 13 -66 26 -138 29 -160 2 -22 9 -60 16 -85 9 -38 66 -341 126 -680 9
-47 17 -86 19 -88 4 -4 448 -2 452 2 5 4 52 248 97 496 13 68 118 639 136 734
11 61 20 118 20 128 0 17 -13 18 -190 18 -188 0 -190 0 -195 -22 -4 -18 -45
-242 -69 -378 -1 -8 -6 -43 -11 -78 -4 -34 -10 -61 -12 -58 -5 5 -36 174 -74
404 l-22 132 -192 0 c-105 0 -194 -3 -198 -6z m337 -71 c6 -22 34 -175 40
-223 3 -19 14 -87 25 -150 12 -63 33 -187 47 -275 25 -148 44 -216 44 -154 0
14 3 29 7 32 3 4 7 17 8 30 3 29 31 211 50 317 39 220 75 426 75 433 0 4 59 7
130 7 72 0 130 -1 130 -2 -1 -4 -28 -150 -34 -178 -3 -14 -12 -70 -21 -125
-10 -55 -20 -107 -24 -115 -4 -8 -8 -29 -9 -47 -1 -18 -9 -65 -17 -105 -18
-88 -21 -101 -29 -156 -22 -139 -97 -517 -104 -524 -5 -5 -84 -7 -177 -6
l-169 3 -17 90 c-9 50 -35 191 -58 315 -40 222 -57 311 -66 360 -2 14 -22 119
-44 234 -22 114 -37 214 -34 222 3 8 0 14 -6 14 -6 0 -11 4 -11 9 0 5 58 10
129 10 116 2 130 0 135 -16z"/>
<path d="M7700 2751 l0 -690 23 -3 c12 -2 100 -2 195 0 l172 3 0 689 0 690
-195 0 -195 0 0 -689z m328 5 c2 -489 0 -621 -10 -628 -7 -4 -68 -8 -135 -8
l-123 0 0 630 0 631 133 -3 132 -3 3 -619z"/>
<path d="M8438 3333 l-108 -106 0 -475 -1 -475 68 -71 c37 -39 87 -87 111
-108 l43 -38 202 0 203 0 84 86 c47 47 95 96 108 108 22 21 22 26 20 197 l-3
174 -162 3 -163 2 0 115 c0 136 -18 124 185 128 l140 2 2 175 3 175 -40 43
c-23 23 -45 42 -51 42 -6 0 -8 3 -6 8 2 4 -15 23 -39 42 -23 19 -43 39 -43 44
-2 30 -39 35 -241 36 l-205 0 -107 -107z m576 -48 l96 -96 0 -117 c0 -64 -4
-123 -8 -130 -7 -9 -40 -12 -133 -10 l-124 3 0 88 0 88 -93 -3 -93 -3 0 -360
1 -360 67 2 c38 1 79 2 93 2 l25 1 -3 89 -3 89 133 -1 133 -2 2 -131 1 -131
-91 -91 -92 -90 -172 -2 -172 -1 -95 95 -95 95 -1 443 0 443 94 93 95 92 169
0 170 0 96 -95z"/>
<path d="M9408 2767 c-2 -371 -2 -681 0 -690 3 -16 36 -17 378 -17 l374 0 -2
196 -3 196 -177 -1 -178 0 0 54 0 55 180 0 180 0 -2 191 -3 191 -177 -1 -178
0 0 54 0 55 180 0 180 0 0 195 0 195 -375 0 -375 0 -2 -673z m692 478 l0 -135
-186 0 c-166 0 -185 -2 -180 -16 3 -9 6 -60 6 -115 l0 -99 178 -2 177 -3 3
-125 3 -126 -181 1 -180 0 0 -27 c-1 -16 -1 -69 -1 -119 l-1 -91 179 -2 178
-1 0 -130 0 -130 -313 -2 -312 -2 0 629 1 629 314 1 315 0 0 -135z"/>
<path d="M3367 5103 c-3 -5 -44 -84 -92 -178 -48 -93 -95 -177 -105 -185 -19
-15 -59 -106 -65 -146 -2 -12 -16 -51 -33 -88 -20 -47 -39 -73 -61 -87 -38
-23 -63 -62 -84 -131 -55 -183 -74 -236 -130 -352 l-62 -128 -32 44 c-49 68
-151 106 -213 79 -23 -10 -22 -11 10 -6 29 5 32 4 17 -6 -11 -6 -33 -9 -50 -6
-18 3 -26 3 -19 0 6 -2 9 -10 5 -15 -4 -7 2 -9 15 -6 16 4 22 2 22 -10 0 -8
-3 -12 -7 -9 -3 4 -17 0 -31 -9 -13 -9 -32 -14 -42 -11 -11 3 -26 -3 -36 -14
-9 -10 -21 -19 -26 -19 -15 0 35 61 62 76 14 7 19 13 11 14 -23 0 -92 -76 -85
-94 4 -10 1 -16 -9 -16 -18 0 -29 -14 -32 -44 -4 -36 -5 -37 -14 -32 -13 8
-53 -107 -50 -143 3 -28 -2 -34 -66 -75 -51 -32 -76 -43 -95 -40 -30 6 -80
-11 -80 -27 0 -6 -15 -29 -34 -50 -18 -22 -36 -54 -40 -71 -3 -17 -21 -52 -40
-78 -19 -27 -36 -57 -38 -67 -2 -10 -6 -20 -10 -23 -8 -7 -112 -192 -198 -355
-35 -66 -127 -234 -205 -374 -121 -220 -145 -256 -170 -264 -39 -13 -45 -23
-45 -79 0 -61 -52 -152 -101 -176 -57 -29 -100 -129 -64 -149 12 -7 6 -28 -38
-123 -29 -63 -71 -149 -94 -190 -140 -258 -155 -290 -134 -290 13 0 52 70 190
340 68 133 121 225 124 217 6 -16 159 -107 180 -107 15 0 28 21 26 43 0 7 -4
3 -9 -8 -8 -19 -9 -19 -9 3 -1 12 4 22 9 22 27 0 74 51 127 136 56 90 72 104
119 104 16 0 31 20 65 82 32 59 72 111 147 189 97 102 105 107 130 98 18 -7
33 -7 48 2 15 8 27 8 40 1 16 -9 14 -12 -17 -31 -19 -11 -44 -21 -57 -21 -30
0 -60 -16 -94 -51 -36 -36 -35 -51 6 -96 18 -21 40 -54 48 -73 8 -19 32 -50
53 -68 31 -28 42 -32 69 -27 37 8 139 72 218 138 47 39 70 50 126 62 75 15
122 33 122 46 0 5 15 16 33 25 17 9 54 37 82 60 57 50 72 54 77 19 l3 -25 33
26 c26 20 32 33 32 62 0 36 31 102 48 102 16 0 152 146 174 187 13 23 36 65
52 94 25 48 28 59 21 113 -13 114 -54 175 -133 197 -26 6 -49 13 -50 15 -2 1
16 31 41 66 63 90 92 143 120 221 l25 67 -40 -36 c-57 -51 -68 -33 -29 49 17
36 31 68 31 72 0 16 44 67 65 75 13 5 40 36 59 70 l36 61 -30 38 c-20 24 -28
44 -24 54 3 10 1 23 -5 31 -6 7 -9 15 -6 18 10 10 22 99 14 104 -4 2 -4 15 1
29 5 13 9 32 9 42 0 47 26 183 35 183 5 0 22 -12 37 -26 l27 -26 15 23 c9 14
15 45 14 76 0 34 5 58 15 70 8 10 23 41 32 69 17 51 17 52 -9 117 -25 61 -26
70 -15 120 9 45 8 62 -4 91 -18 42 -19 38 77 233 83 170 88 181 77 188 -5 3
-11 2 -13 -2z m-323 -940 c-6 -67 -39 -294 -55 -371 -7 -34 -22 -66 -40 -86
-29 -34 -38 -53 -19 -41 18 11 11 -1 -12 -21 -19 -15 -20 -16 -9 -1 7 9 10 17
5 17 -5 0 -17 -14 -26 -31 -11 -18 -13 -27 -5 -24 6 4 1 -2 -12 -13 -16 -13
-21 -24 -16 -33 5 -8 5 -11 0 -7 -4 4 -18 -6 -32 -23 -14 -16 -33 -29 -43 -29
-10 0 -27 -12 -38 -27 -11 -16 -23 -25 -27 -22 -3 4 1 14 10 22 8 9 15 19 15
24 0 25 246 591 263 604 11 9 22 30 23 47 2 31 13 72 19 72 2 0 1 -26 -1 -57z
m-428 -378 c19 -14 32 -31 28 -36 -4 -6 -11 -6 -19 1 -10 9 -20 8 -37 -1 l-23
-13 25 -6 c14 -3 26 -11 28 -19 2 -10 -4 -12 -22 -7 -14 3 -28 1 -32 -6 -4 -7
-3 -8 4 -4 7 4 20 2 29 -3 14 -8 10 -10 -24 -11 -30 0 -50 -7 -73 -27 -26 -22
-36 -25 -58 -17 -23 8 -27 16 -30 56 -7 111 110 165 204 93z m-229 -249 c11
-13 33 -27 50 -30 23 -5 34 -15 43 -39 10 -29 9 -34 -11 -47 -12 -8 -59 -49
-103 -91 -75 -70 -126 -102 -201 -127 -16 -5 -37 -13 -46 -16 -10 -5 -33 6
-63 28 -25 20 -52 36 -60 36 -8 0 -23 8 -35 18 l-21 17 24 31 c16 20 55 43
116 69 74 32 87 41 70 47 -27 10 -22 18 40 56 l51 32 6 -30 c7 -35 5 -35 55
-13 30 13 38 22 38 43 0 46 19 52 47 16z m-456 -401 c8 -22 14 -76 14 -120 1
-44 3 -87 6 -95 2 -9 -7 -18 -27 -25 -54 -18 -156 -92 -175 -127 -8 -16 -7
-17 16 -8 30 11 96 -1 160 -29 58 -26 97 -100 101 -195 4 -79 -2 -89 -69 -139
-36 -27 -37 -27 -37 -7 0 12 -11 46 -25 76 -14 30 -25 63 -25 73 0 33 -153 87
-215 75 -29 -5 -44 -19 -84 -74 -27 -37 -64 -94 -82 -126 -30 -53 -107 -164
-132 -189 -6 -5 1 10 15 35 14 25 47 86 73 135 27 50 74 135 105 190 47 83
164 296 292 535 46 86 50 91 64 72 6 -9 17 -35 25 -57z m848 -294 c12 14 20
16 31 9 13 -8 13 -10 -1 -10 -9 0 -19 -6 -22 -14 -6 -16 19 -30 35 -19 7 4 9
-1 6 -14 -3 -12 2 -33 13 -49 10 -15 23 -49 29 -76 16 -64 0 -108 -58 -167
l-46 -45 -11 44 c-15 58 -57 140 -84 164 -28 25 -27 36 7 63 24 20 25 22 7 23
-11 0 -36 -9 -56 -19 -34 -18 -39 -18 -83 -4 -42 14 -45 17 -32 32 8 9 14 20
14 24 0 5 10 22 22 39 19 25 27 29 54 25 17 -3 49 -2 71 2 30 6 46 3 64 -10
24 -16 26 -16 40 2z"/>
<path d="M2218 1767 c-71 -16 -128 -55 -159 -110 -24 -41 -24 -46 -27 -337 -3
-198 0 -307 8 -332 18 -62 36 -67 280 -66 202 0 256 6 271 30 4 6 16 4 33 -7
83 -55 259 -58 365 -7 35 17 38 17 66 0 25 -16 47 -18 137 -16 142 4 151 12
157 133 3 83 4 85 30 91 14 3 43 12 64 20 20 8 38 14 40 14 1 0 2 -42 2 -93 0
-105 12 -139 55 -157 18 -7 94 -10 224 -8 l198 3 24 28 c21 25 24 38 24 107 0
75 -1 79 -31 104 -26 22 -40 26 -95 26 -62 0 -64 1 -64 25 0 24 3 25 55 25 97
0 135 38 135 132 0 45 -23 106 -43 114 -11 4 -7 12 14 34 27 26 29 34 29 104
0 65 -3 79 -24 103 l-24 28 -196 3 c-162 3 -201 0 -229 -13 -31 -15 -36 -14
-83 7 -39 18 -68 22 -144 22 -107 1 -178 -18 -223 -59 l-27 -26 -38 30 c-97
78 -309 79 -417 3 -42 -29 -44 -30 -60 -12 -49 54 -213 82 -327 57z"/>
<path d="M4371 1770 c-51 -11 -116 -43 -149 -73 -52 -48 -56 -71 -60 -372 -4
-337 -2 -359 41 -385 29 -18 50 -19 264 -17 200 2 235 4 249 18 15 16 18 16
48 -1 100 -58 297 -48 382 19 l25 20 47 -30 c93 -57 283 -62 370 -9 18 11 32
16 32 11 0 -23 61 -31 244 -31 174 0 196 2 217 19 22 17 24 17 53 0 99 -56
309 -46 393 21 25 20 27 20 47 3 34 -29 59 -40 122 -53 113 -24 251 4 311 62
44 43 57 87 57 195 0 83 -4 99 -31 152 l-30 59 22 12 c32 17 45 52 45 123 0
125 -37 193 -129 235 -49 23 -69 26 -156 26 -102 0 -172 -20 -216 -60 -15 -13
-21 -12 -65 16 -92 57 -254 63 -351 14 -45 -22 -48 -22 -66 -6 -16 14 -46 17
-206 20 -177 3 -261 -5 -261 -27 0 -5 -17 0 -38 10 -111 55 -289 45 -383 -22
l-30 -21 -22 21 c-39 36 -105 54 -202 54 -100 1 -170 -17 -220 -57 l-29 -24
-31 24 c-65 49 -199 74 -294 54z"/>
<path d="M7392 1765 c-72 -17 -130 -60 -158 -115 -22 -43 -23 -56 -24 -306 -1
-283 2 -299 57 -364 53 -64 172 -93 280 -71 37 8 164 13 344 14 262 2 289 4
307 20 19 18 22 18 47 1 82 -54 258 -57 364 -6 35 17 38 17 65 1 26 -15 58
-18 249 -18 204 1 267 7 267 29 0 4 20 -3 45 -16 61 -30 141 -39 218 -24 43 8
195 12 503 12 l441 0 29 23 29 23 3 301 c2 202 -1 315 -9 343 -15 57 -80 120
-150 144 -100 35 -275 18 -330 -32 -16 -14 -20 -14 -49 8 -28 21 -42 23 -135
23 -89 0 -107 -3 -132 -21 l-28 -20 -32 22 c-30 20 -128 44 -183 44 -66 0
-154 -24 -200 -55 -41 -27 -51 -31 -61 -19 -6 7 -36 26 -68 41 -50 25 -66 28
-156 27 -112 -1 -172 -18 -217 -61 l-28 -27 -22 21 c-37 33 -82 52 -156 65
-81 14 -180 1 -245 -31 -39 -19 -42 -20 -60 -3 -17 15 -44 17 -228 17 -200 0
-209 -1 -230 -21 l-21 -22 -34 23 c-60 41 -192 55 -292 30z"/>
</g>
</svg>
